<?xml version="1.0" standalone="no"?>
<!DOCTYPE svg PUBLIC "-//W3C//DTD SVG 20010904//EN"
 "http://www.w3.org/TR/2001/REC-SVG-20010904/DTD/svg10.dtd">
<svg version="1.0" xmlns="http://www.w3.org/2000/svg"
 width="2429.000000pt" height="2429.000000pt" viewBox="0 0 2429.000000 2429.000000"
 preserveAspectRatio="xMidYMid meet">
<metadata>
Created by potrace 1.11, written by Peter Selinger 2001-2013
</metadata>
<g transform="translate(0.000000,2429.000000) scale(0.100000,-0.100000)"
fill="#000000" stroke="none">
<path d="M11485 23615 c-374 -371 -1689 -1682 -2923 -2912 -1993 -1990 -2242
-2241 -2242 -2268 0 -16 4 -35 8 -42 10 -15 2665 -2683 4428 -4450 1071 -1072
1397 -1393 1415 -1393 36 0 5879 5844 5879 5880 0 37 -5823 5860 -5860 5860
-20 0 -172 -147 -705 -675z"/>
<path d="M5854 18044 c-13 -5 -287 -278 -3418 -3398 -1253 -1249 -2312 -2304
-2353 -2345 -62 -62 -74 -79 -71 -102 3 -31 629 -663 4120 -4161 1285 -1288
1720 -1718 1737 -1718 17 0 750 727 2942 2918 1605 1605 2923 2930 2928 2943
6 16 4 32 -5 49 -7 14 -1317 1329 -2911 2923 -2604 2603 -2901 2897 -2928
2896 -16 0 -35 -3 -41 -5z"/>
<path d="M18384 17952 c-47 -29 -5811 -5778 -5829 -5812 -10 -20 -10 -31 -1
-52 11 -28 1226 -1251 4249 -4282 1496 -1498 1577 -1578 1604 -1572 20 5 888
867 2951 2929 2330 2330 2922 2927 2922 2947 0 20 -590 615 -2913 2938 -2587
2587 -2915 2912 -2942 2912 -17 0 -35 -4 -41 -8z"/>
<path d="M12100 11722 c-19 -15 -260 -252 -535 -527 -276 -275 -613 -609 -750
-741 -172 -167 -4477 -4467 -4534 -4529 -1 -2 -5 -21 -7 -42 l-3 -38 498 -500
c275 -275 561 -565 637 -645 76 -80 1162 -1170 2414 -2423 2023 -2024 2278
-2277 2305 -2277 17 0 36 4 43 8 15 10 2072 2056 2651 2637 230 231 1041 1045
1802 1808 761 764 1388 1395 1392 1404 5 8 6 24 3 36 -8 32 -5825 5845 -5856
5851 -18 4 -35 -2 -60 -22z"/>
</g>
</svg>
